# xmcd
#
# Track frame offsets: 
#        150
#        18387
#        39225
#
# Disc length: 766 seconds
#
# Revision: 4
# Processed by: cddbd v1.5.2PL0 Copyright (c) Steve Scherf et al.
# Submitted via: ExactAudioCopy v1.0b3
#
DISCID=1702fc03
DTITLE=T.M.Revolution - HEART OF SWORD ～夜明け前～
DYEAR=1996
DGENRE=J-song
TTITLE0=HEART OF SWORD ～夜明け前～
TTITLE1=IMITATION CRIME
TTITLE2=HEART OF SWORD ～夜明け前～(Original backing track)
EXTD=YEAR: 1996
EXTT0=
EXTT1=
EXTT2=
PLAYORDER=
